<svg width="68" height="13" viewBox="0 0 68 13" fill="none" xmlns="http://www.w3.org/2000/svg">
<path d="M33.5 13C37.0899 13 40 10.0899 40 6.5C40 2.91015 37.0899 0 33.5 0C29.9101 0 27 2.91015 27 6.5C27 10.0899 29.9101 13 33.5 13Z" fill="black" fill-opacity="0.64"/>
<path d="M61 13C64.866 13 68 10.0899 68 6.5C68 2.91015 64.866 0 61 0C57.134 0 54 2.91015 54 6.5C54 10.0899 57.134 13 61 13Z" fill="black" fill-opacity="0.64"/>
<path d="M6.5 13C10.0899 13 13 10.0899 13 6.5C13 2.91015 10.0899 0 6.5 0C2.91015 0 0 2.91015 0 6.5C0 10.0899 2.91015 13 6.5 13Z" fill="black" fill-opacity="0.64"/>
</svg>
